<?xml version="1.0" standalone="no"?>
<!DOCTYPE svg PUBLIC "-//W3C//DTD SVG 20010904//EN"
 "http://www.w3.org/TR/2001/REC-SVG-20010904/DTD/svg10.dtd">
<svg version="1.0" xmlns="http://www.w3.org/2000/svg"
 width="512.000000pt" height="512.000000pt" viewBox="0 0 512.000000 512.000000"
 preserveAspectRatio="xMidYMid meet">

<g transform="translate(0.000000,512.000000) scale(0.100000,-0.100000)"
fill="#000000" stroke="none">
<path d="M2500 5113 c-158 -8 -347 -27 -420 -43 -47 -10 -101 -21 -121 -24
-66 -11 -332 -103 -444 -154 -757 -343 -1299 -1020 -1463 -1827 -63 -308 -63
-702 0 -1010 56 -279 160 -547 306 -795 261 -442 684 -822 1142 -1025 47 -20
99 -43 115 -51 63 -28 312 -105 370 -114 33 -5 76 -14 95 -20 65 -19 324 -41
480 -41 156 0 415 22 480 41 19 6 62 15 95 20 87 14 342 100 470 158 473 215
853 549 1141 1002 37 58 158 298 185 365 213 539 245 1109 92 1660 -53 189
-156 427 -264 612 -257 433 -684 816 -1139 1018 -47 20 -98 43 -115 51 -63 28
-312 105 -370 114 -33 5 -76 14 -95 20 -69 20 -427 49 -540 43z m390 -107
c171 -22 342 -65 545 -136 101 -35 374 -175 480 -246 534 -355 902 -878 1049
-1489 50 -205 61 -313 61 -575 -1 -178 -5 -275 -18 -356 -81 -532 -320 -1007
-696 -1385 -385 -386 -875 -629 -1422 -705 -164 -23 -488 -24 -654 -1 -1015
137 -1840 881 -2079 1872 -85 349 -86 781 -5 1130 103 444 327 850 647 1173
206 208 416 359 677 487 294 144 535 209 920 249 75 8 380 -3 495 -18z"/>
<path d="M2940 3865 c-11 -13 -7 -28 20 -86 18 -39 30 -72 27 -75 -2 -3 -60
18 -128 46 -68 27 -129 50 -135 50 -11 0 -24 -22 -24 -39 0 -4 61 -32 136 -62
l136 -54 -76 -34 c-55 -25 -76 -39 -76 -53 0 -10 6 -21 14 -24 19 -7 233 84
240 102 3 7 -16 59 -41 116 -60 135 -67 144 -93 113z"/>
<path d="M3334 3865 c-10 -26 -4 -30 140 -84 14 -5 -22 -26 -138 -81 -86 -41
-156 -79 -156 -85 0 -5 4 -16 9 -24 11 -17 19 -14 196 70 66 32 121 54 123 50
1 -5 -9 -39 -22 -77 -21 -56 -23 -71 -12 -82 15 -16 42 -7 49 16 2 9 20 60 40
113 19 54 31 102 27 109 -7 12 -213 90 -237 90 -8 0 -16 -7 -19 -15z"/>
<path d="M3930 3865 c-10 -12 -7 -28 19 -86 18 -39 30 -73 28 -76 -3 -2 -60
19 -127 47 -135 55 -145 57 -154 34 -11 -27 -7 -30 67 -59 39 -16 100 -40 135
-55 l63 -27 -76 -33 c-55 -24 -75 -38 -75 -52 0 -10 6 -21 14 -24 18 -7 233
84 240 101 2 7 -16 60 -41 117 -61 136 -67 144 -93 113z"/>
<path d="M2283 3824 c-9 -25 19 -41 85 -48 31 -4 62 -10 69 -14 7 -4 -22 -31
-78 -71 -90 -65 -96 -74 -79 -101 11 -18 19 -14 128 68 40 30 74 53 76 51 2
-2 -2 -38 -9 -79 -11 -63 -11 -77 0 -89 29 -29 41 -5 62 121 12 67 17 127 13
132 -8 8 -205 46 -243 46 -10 0 -20 -7 -24 -16z"/>
<path d="M1845 3580 c-113 -45 -175 -131 -175 -244 0 -72 -20 -37 215 -379 36
-53 66 -86 75 -85 22 5 269 366 281 412 12 46 5 126 -16 165 -22 43 -87 102
-135 124 -66 29 -181 33 -245 7z m222 -115 c56 -33 77 -74 71 -137 -18 -186
-346 -181 -365 6 -7 67 36 119 125 152 49 19 115 10 169 -21z"/>
<path d="M4205 3580 c-172 -67 -231 -256 -123 -390 13 -15 68 -93 123 -174 54
-80 105 -146 112 -146 12 0 211 274 261 360 98 166 -50 371 -267 369 -31 0
-78 -9 -106 -19z m215 -110 c58 -30 82 -72 77 -138 -4 -61 -29 -94 -92 -123
-82 -38 -199 -13 -246 52 -101 142 92 295 261 209z"/>
<path d="M537 2973 c-4 -3 -7 -24 -7 -45 l0 -38 170 0 170 0 0 -340 0 -340 45
0 45 0 2 338 3 337 168 3 168 2 -3 43 -3 42 -376 3 c-206 1 -378 -1 -382 -5z"/>
<path d="M1443 2815 c-18 -7 -42 -29 -53 -47 -19 -31 -20 -50 -20 -295 l0
-263 45 0 45 0 0 255 0 255 26 10 c14 6 102 10 195 10 l170 0 -3 43 -3 42
-185 2 c-142 2 -193 -1 -217 -12z"/>
<path d="M1910 2520 l0 -310 45 0 45 0 0 310 0 310 -45 0 -45 0 0 -310z"/>
<path d="M2100 2400 l0 -430 45 0 45 0 0 120 0 120 223 0 c325 0 317 -8 317
312 0 319 14 308 -370 308 l-260 0 0 -430z m515 330 l25 -10 -2 -202 -3 -203
-212 -3 c-203 -2 -213 -2 -223 18 -7 12 -9 86 -8 202 l3 182 25 13 c31 16 355
18 395 3z"/>
<path d="M2800 2786 l0 -45 260 -3 c219 -3 262 -5 270 -18 5 -8 10 -45 10 -82
l0 -68 -267 -2 -268 -3 0 -137 0 -138 38 -37 37 -38 275 -3 275 -3 0 261 c0
284 -3 299 -57 336 -25 17 -52 19 -300 22 l-273 3 0 -45z m540 -396 l0 -80
-219 0 c-218 0 -219 0 -225 23 -8 30 -8 122 1 130 3 4 105 7 225 7 l218 0 0
-80z"/>
<path d="M3540 2560 l0 -270 34 -38 34 -37 242 0 242 0 34 37 34 38 0 260 c0
143 0 263 0 268 0 4 -19 7 -42 7 l-43 0 -5 -255 -5 -255 -215 0 -215 0 -3 258
-2 257 -45 0 -45 0 0 -270z"/>
<path d="M4270 2520 l0 -310 45 0 45 0 0 310 0 310 -45 0 -45 0 0 -310z"/>
<path d="M2375 1624 c-38 -8 -113 -35 -165 -61 -80 -39 -108 -60 -180 -132
-94 -96 -140 -165 -175 -268 -25 -76 -50 -216 -41 -239 4 -9 21 -14 56 -14
l50 0 0 43 c0 64 35 189 72 260 49 95 174 215 268 259 180 84 363 83 539 -4
158 -77 290 -245 321 -407 5 -30 10 -148 10 -262 l0 -209 -197 0 c-158 1 -202
4 -217 15 -16 12 -55 15 -184 15 l-164 0 -30 -30 c-26 -27 -30 -36 -24 -68 10
-66 28 -72 222 -72 134 0 174 3 190 15 15 12 65 14 267 15 l249 0 -4 288 c-5
318 -10 349 -74 477 -144 290 -468 445 -789 379z"/>
<path d="M1980 910 l0 -201 143 3 142 3 3 198 2 197 -145 0 -145 0 0 -200z"/>
<path d="M2790 910 l0 -201 143 3 142 3 3 198 2 197 -145 0 -145 0 0 -200z"/>
</g>
</svg>
